<svg width="64" height="64" viewBox="0 0 64 64" fill="none" xmlns="http://www.w3.org/2000/svg">
<rect width="64" height="64" fill="#87CEEB"/>
<path d="M11 54L11 10" stroke="black" stroke-width="2"/>
<path d="M17 54L17 10" stroke="black" stroke-width="2"/>
<path d="M23 54L23 10" stroke="black" stroke-width="2"/>
<path d="M29 54L29 10" stroke="black" stroke-width="2"/>
<path d="M35 54L35 10" stroke="black" stroke-width="2"/>
<path d="M41 54L41 10" stroke="black" stroke-width="2"/>
<path d="M47 54L47 10" stroke="black" stroke-width="2"/>
<path d="M53 54L53 10" stroke="black" stroke-width="2"/>
<path d="M53 53L11 53" stroke="black" stroke-width="2"/>
<path d="M53 47L11 47" stroke="black" stroke-width="2"/>
<path d="M53 41L11 41" stroke="black" stroke-width="2"/>
<path d="M53 35L11 35" stroke="black" stroke-width="2"/>
<path d="M53 29L11 29" stroke="black" stroke-width="2"/>
<path d="M53 23L11 23" stroke="black" stroke-width="2"/>
<path d="M53 17L11 17" stroke="black" stroke-width="2"/>
<path d="M53 11L11 11" stroke="black" stroke-width="2"/>
</svg>
